# xmcd
#
# Track frame offsets:
#	150
#	26698
#	40643
#	53891
#	68645
#	87143
#	107294
#	127273
#	152288
#	169506
#	195199
#	213997
#	236638
#
# Disc length: 3439 seconds
#
# Revision: 0
# Processed by: cddbd v1.5.2PL0 Copyright (c) Steve Scherf et al.
# Submitted via: audiograbber 1.83.01
#
DISCID=980d6d0d
DTITLE=Patti Labelle - Patti LaBelle - The Spirit's In It - I'm In Love Again C
DTITLE=D1
DYEAR=1998
DGENRE=Soul
TTITLE0=The Spirit's In It
TTITLE1=Here You Come Again
TTITLE2=Love Lives
TTITLE3=I Fell In Love Without Warning
TTITLE4=Boats Against The Current
TTITLE5=Rockin' Pneumonia And The Boogie Woogie Flu
TTITLE6=Family
TTITLE7=Shoot Him On Sight
TTITLE8=Over The Rainbow
TTITLE9=I'm In Love Again
TTITLE10=Lover Man (Oh Where Can You Be?)
TTITLE11=Love, Need And Want You
TTITLE12=If Only You Knew
EXTD=
EXTT0=
EXTT1=
EXTT2=
EXTT3=
EXTT4=
EXTT5=
EXTT6=
EXTT7=
EXTT8=
EXTT9=
EXTT10=
EXTT11=
EXTT12=
PLAYORDER=
